<svg width="186" height="117" viewBox="0 0 186 117" fill="none" xmlns="http://www.w3.org/2000/svg">
<mask id="path-1-outside-1_79_2534" maskUnits="userSpaceOnUse" x="-13.7266" y="-17.1951" width="210.034" height="147.559" fill="black">
<rect fill="white" x="-13.7266" y="-17.1951" width="210.034" height="147.559"/>
<path d="M42.7751 68.3325L63.0266 27.1365C53.6701 27.7939 43.6558 26.0629 36.9415 27.368C30.0406 28.7094 28.0432 32.872 28.7139 36.3224C29.439 40.0526 32.8608 41.2262 35.7517 40.6643C39.5751 39.9211 41.7357 36.5978 41.7357 36.5978L49.4623 44.4834C49.4623 44.4834 45.3303 50.6094 37.1239 52.2045C28.3579 53.9084 18.8411 49.7581 16.7384 38.9405C14.8895 29.4286 19.6979 18.8161 34.4321 15.9521C47.1147 13.4868 62.2759 17.7981 72.288 13.0454C74.9692 9.91122 78.1866 7.54382 83.4089 6.52872L87.6722 14.0229C87.5038 14.1524 83.6181 16.0691 81.0974 20.527L57.9081 67.5201C55.1205 73.0944 52.408 78.5573 49.2319 83.6265C55.49 87.4425 64.2555 92.7067 69.3273 95.3984C74.5856 98.0539 77.1164 98.6265 79.6342 98.1371C83.6442 97.3576 87.201 94.2468 90.8434 89.087L101.197 97.0427C95.4325 105.228 88.3838 109.792 82.286 110.783C75.7219 111.866 69.1762 109.557 63.7884 106.734C58.512 103.985 51.6063 99.3269 41.9316 93.3685C37.2842 98.3365 31.9918 101.978 25.3708 103.265C13.2477 105.622 6.86026 98.1533 5.60951 91.7187C4.3225 85.0977 7.56369 74.8866 19.034 72.657C25.8416 71.3337 31.9029 73.6395 38.0523 76.896C39.6507 74.1659 41.3061 71.2311 42.7751 68.3325ZM22.5065 92.0151C25.0244 91.5257 27.7547 89.64 30.6587 86.6561C26.6464 84.4359 23.2997 83.1509 20.5953 83.6765C17.8909 84.2022 16.5179 86.5982 16.9892 89.0229C17.4605 91.4475 19.727 92.6521 22.5065 92.0151ZM126.844 49.7653C128.838 49.5712 131.701 50.8536 132.791 52.4804C129.441 62.1319 122.17 70.0295 112.513 71.1324C108.901 77.4475 103.117 82.5399 94.817 84.1531C83.2534 86.4009 75.5344 80.5462 73.468 69.9151C71.039 57.419 76.1719 35.0333 95.9419 31.1904C107.226 28.9971 114.743 34.3104 116.845 45.1279C117.842 50.2569 117.658 56.7769 115.966 63.0092C120.391 61.375 124.289 57.0363 126.844 49.7653ZM92.8385 74.4728C95.0766 74.0378 97.0455 71.7195 98.5714 68.6163C96.9939 67.4713 95.9035 65.8444 95.5047 63.7928C94.689 59.5964 97.3754 55.4934 101.981 54.7917C102.58 50.901 102.673 47.3988 102.22 45.0674C101.549 41.617 99.5989 40.5445 97.6406 40.9252C90.2734 42.3572 86.8995 63.3364 88.2409 70.2372C88.8209 73.2214 90.6004 74.9078 92.8385 74.4728ZM174.515 40.499C176.51 40.3048 179.372 41.5872 180.463 43.214C176.296 55.6372 167.294 70.065 149.389 73.5454C136.427 76.065 128.946 70.9382 126.97 60.7735C124.559 48.3706 129.718 24.625 149.675 20.7458C160.212 18.6975 170.506 23.8581 167.148 38.4469C164.881 47.6944 158.472 54.5533 140.785 55.6687C140.785 55.6687 139.966 65.8928 151.809 63.5907C161.321 61.7418 170.178 53.536 174.515 40.499ZM151.231 32.7342C144.33 34.0755 141.744 47.1594 141.744 47.1594C150.613 46.9838 152.65 42.5233 153.663 37.7778C154.331 34.7445 154.401 32.1178 151.231 32.7342Z"/>
</mask>
<path d="M42.7751 68.3325L63.0266 27.1365C53.6701 27.7939 43.6558 26.0629 36.9415 27.368C30.0406 28.7094 28.0432 32.872 28.7139 36.3224C29.439 40.0526 32.8608 41.2262 35.7517 40.6643C39.5751 39.9211 41.7357 36.5978 41.7357 36.5978L49.4623 44.4834C49.4623 44.4834 45.3303 50.6094 37.1239 52.2045C28.3579 53.9084 18.8411 49.7581 16.7384 38.9405C14.8895 29.4286 19.6979 18.8161 34.4321 15.9521C47.1147 13.4868 62.2759 17.7981 72.288 13.0454C74.9692 9.91122 78.1866 7.54382 83.4089 6.52872L87.6722 14.0229C87.5038 14.1524 83.6181 16.0691 81.0974 20.527L57.9081 67.5201C55.1205 73.0944 52.408 78.5573 49.2319 83.6265C55.49 87.4425 64.2555 92.7067 69.3273 95.3984C74.5856 98.0539 77.1164 98.6265 79.6342 98.1371C83.6442 97.3576 87.201 94.2468 90.8434 89.087L101.197 97.0427C95.4325 105.228 88.3838 109.792 82.286 110.783C75.7219 111.866 69.1762 109.557 63.7884 106.734C58.512 103.985 51.6063 99.3269 41.9316 93.3685C37.2842 98.3365 31.9918 101.978 25.3708 103.265C13.2477 105.622 6.86026 98.1533 5.60951 91.7187C4.3225 85.0977 7.56369 74.8866 19.034 72.657C25.8416 71.3337 31.9029 73.6395 38.0523 76.896C39.6507 74.1659 41.3061 71.2311 42.7751 68.3325ZM22.5065 92.0151C25.0244 91.5257 27.7547 89.64 30.6587 86.6561C26.6464 84.4359 23.2997 83.1509 20.5953 83.6765C17.8909 84.2022 16.5179 86.5982 16.9892 89.0229C17.4605 91.4475 19.727 92.6521 22.5065 92.0151ZM126.844 49.7653C128.838 49.5712 131.701 50.8536 132.791 52.4804C129.441 62.1319 122.17 70.0295 112.513 71.1324C108.901 77.4475 103.117 82.5399 94.817 84.1531C83.2534 86.4009 75.5344 80.5462 73.468 69.9151C71.039 57.419 76.1719 35.0333 95.9419 31.1904C107.226 28.9971 114.743 34.3104 116.845 45.1279C117.842 50.2569 117.658 56.7769 115.966 63.0092C120.391 61.375 124.289 57.0363 126.844 49.7653ZM92.8385 74.4728C95.0766 74.0378 97.0455 71.7195 98.5714 68.6163C96.9939 67.4713 95.9035 65.8444 95.5047 63.7928C94.689 59.5964 97.3754 55.4934 101.981 54.7917C102.58 50.901 102.673 47.3988 102.22 45.0674C101.549 41.617 99.5989 40.5445 97.6406 40.9252C90.2734 42.3572 86.8995 63.3364 88.2409 70.2372C88.8209 73.2214 90.6004 74.9078 92.8385 74.4728ZM174.515 40.499C176.51 40.3048 179.372 41.5872 180.463 43.214C176.296 55.6372 167.294 70.065 149.389 73.5454C136.427 76.065 128.946 70.9382 126.97 60.7735C124.559 48.3706 129.718 24.625 149.675 20.7458C160.212 18.6975 170.506 23.8581 167.148 38.4469C164.881 47.6944 158.472 54.5533 140.785 55.6687C140.785 55.6687 139.966 65.8928 151.809 63.5907C161.321 61.7418 170.178 53.536 174.515 40.499ZM151.231 32.7342C144.33 34.0755 141.744 47.1594 141.744 47.1594C150.613 46.9838 152.65 42.5233 153.663 37.7778C154.331 34.7445 154.401 32.1178 151.231 32.7342Z" fill="#F16A67"/>
<path d="M42.7751 68.3325L47.235 70.5928L47.2488 70.5656L47.2622 70.5384L42.7751 68.3325ZM63.0266 27.1365L67.5137 29.3423L71.3495 21.5394L62.6761 22.1488L63.0266 27.1365ZM41.7357 36.5978L45.307 33.0984L40.9427 28.6443L37.5437 33.8725L41.7357 36.5978ZM49.4623 44.4834L53.6075 47.2793L55.8885 43.8976L53.0336 40.984L49.4623 44.4834ZM72.288 13.0454L74.4322 17.5623L75.3948 17.1054L76.0874 16.2957L72.288 13.0454ZM83.4089 6.52872L87.7549 4.05638L85.9795 0.935465L82.4549 1.62058L83.4089 6.52872ZM87.6722 14.0229L90.7205 17.9862L94.17 15.3331L92.0182 11.5506L87.6722 14.0229ZM81.0974 20.527L76.745 18.0659L76.6758 18.1883L76.6136 18.3144L81.0974 20.527ZM57.9081 67.5201L62.3801 69.7564L62.386 69.7446L62.3919 69.7327L57.9081 67.5201ZM49.2319 83.6265L44.9949 80.9718L42.3077 85.2606L46.6288 87.8955L49.2319 83.6265ZM69.3273 95.3984L66.9834 99.815L67.0281 99.8387L67.0734 99.8616L69.3273 95.3984ZM90.8434 89.087L93.8899 85.1223L89.7613 81.9498L86.7586 86.2035L90.8434 89.087ZM101.197 97.0427L105.285 99.9215L108.046 96.0003L104.243 93.078L101.197 97.0427ZM82.286 110.783L81.4834 105.848L81.4725 105.85L82.286 110.783ZM63.7884 106.734L66.1095 102.305L66.0984 102.299L63.7884 106.734ZM41.9316 93.3685L44.5537 89.1111L41.0729 86.9674L38.2802 89.9527L41.9316 93.3685ZM38.0523 76.896L35.7123 81.3147L39.9464 83.5569L42.3671 79.4223L38.0523 76.896ZM22.5065 92.0151L21.5525 87.1069L21.4707 87.1228L21.3895 87.1414L22.5065 92.0151ZM30.6587 86.6561L34.2419 90.1433L38.8084 85.4512L33.0796 82.2812L30.6587 86.6561ZM47.2622 70.5384L67.5137 29.3423L58.5394 24.9307L38.2879 66.1267L47.2622 70.5384ZM62.6761 22.1488C58.3443 22.4531 53.8366 22.2062 49.2007 22.0136C44.8011 21.8309 40.0201 21.676 35.9874 22.4599L37.8955 32.2761C40.5772 31.7549 44.1605 31.8129 48.7857 32.005C53.1746 32.1873 58.3523 32.4772 63.377 32.1242L62.6761 22.1488ZM35.9874 22.4599C31.6949 23.2942 28.2553 25.1448 26.0449 27.9803C23.8128 30.8438 23.2155 34.2399 23.8058 37.2765L33.622 35.3684C33.5416 34.9545 33.6077 34.5441 33.9318 34.1283C34.2777 33.6846 35.2872 32.7831 37.8955 32.2761L35.9874 22.4599ZM23.8058 37.2765C24.4619 40.652 26.4628 43.1411 29.0884 44.5257C31.5624 45.8303 34.3311 46.034 36.7057 45.5725L34.7976 35.7562C34.5676 35.8009 34.3362 35.808 34.1344 35.7837C33.9335 35.7594 33.8096 35.7101 33.7528 35.6801C33.7262 35.6661 33.7153 35.657 33.7145 35.6563C33.7138 35.6558 33.7144 35.6562 33.7156 35.6574C33.7168 35.6587 33.7175 35.6596 33.7173 35.6594C33.7171 35.6592 33.7149 35.6562 33.7109 35.6494C33.707 35.6425 33.7002 35.6299 33.6916 35.6102C33.675 35.5721 33.6468 35.4956 33.622 35.3684L23.8058 37.2765ZM36.7057 45.5725C39.8105 44.9689 42.1075 43.3525 43.5373 42.0553C44.2685 41.3918 44.8305 40.7602 45.2206 40.2796C45.4171 40.0374 45.5743 39.8283 45.6915 39.6657C45.7503 39.5842 45.7993 39.5139 45.8386 39.4564C45.8583 39.4276 45.8755 39.402 45.8904 39.3797C45.8978 39.3686 45.9046 39.3583 45.9108 39.3489C45.9139 39.3441 45.9169 39.3396 45.9197 39.3353C45.9211 39.3332 45.9225 39.3311 45.9238 39.3291C45.9245 39.328 45.9254 39.3266 45.9258 39.326C45.9267 39.3246 45.9277 39.3231 41.7357 36.5978C37.5437 33.8725 37.5446 33.871 37.5456 33.8696C37.5459 33.8692 37.5468 33.8678 37.5474 33.8668C37.5486 33.865 37.5497 33.8632 37.5509 33.8615C37.5532 33.858 37.5553 33.8547 37.5574 33.8516C37.5615 33.8453 37.5652 33.8398 37.5684 33.835C37.5748 33.8253 37.5795 33.8185 37.5824 33.8142C37.5881 33.8058 37.587 33.8076 37.5792 33.8184C37.5634 33.8404 37.5219 33.8968 37.4561 33.9778C37.3216 34.1435 37.1045 34.3892 36.8177 34.6494C36.2113 35.1996 35.5163 35.6165 34.7976 35.7562L36.7057 45.5725ZM38.1643 40.0971L45.8909 47.9827L53.0336 40.984L45.307 33.0984L38.1643 40.0971ZM49.4623 44.4834C45.3171 41.6874 45.3182 41.6858 45.3192 41.6842C45.3196 41.6837 45.3206 41.6822 45.3213 41.6812C45.3226 41.6792 45.3239 41.6773 45.3251 41.6755C45.3276 41.6719 45.3298 41.6687 45.3318 41.6658C45.3358 41.6599 45.3388 41.6555 45.3409 41.6525C45.3452 41.6463 45.3458 41.6456 45.3427 41.6499C45.3365 41.6586 45.3157 41.6875 45.2805 41.7341C45.2098 41.8276 45.0822 41.9906 44.8983 42.2043C44.5284 42.6342 43.9445 43.2531 43.1529 43.9186C41.5624 45.2557 39.233 46.701 36.1698 47.2964L38.0779 57.1127C43.2211 56.1129 47.0609 53.6976 49.5881 51.5729C50.8552 50.5076 51.8172 49.4952 52.4785 48.7266C52.8103 48.3411 53.0696 48.0131 53.2569 47.7653C53.3507 47.6413 53.4267 47.537 53.4851 47.4552C53.5142 47.4143 53.539 47.3789 53.5594 47.3495C53.5696 47.3348 53.5787 47.3216 53.5867 47.3099C53.5907 47.304 53.5945 47.2985 53.5979 47.2935C53.5996 47.2909 53.6013 47.2885 53.6029 47.2861C53.6037 47.2849 53.6048 47.2832 53.6052 47.2826C53.6064 47.281 53.6075 47.2793 49.4623 44.4834ZM36.1698 47.2964C32.8247 47.9466 29.5127 47.4406 26.9487 45.9474C24.486 44.5131 22.4297 42.0151 21.6466 37.9865L11.8303 39.8946C13.1499 46.6835 16.9033 51.6694 21.9162 54.5888C26.8277 57.4491 32.6571 58.1663 38.0779 57.1127L36.1698 47.2964ZM21.6466 37.9865C20.9404 34.3534 21.5356 30.7002 23.521 27.7355C25.4716 24.8229 29.096 22.0829 35.3862 20.8602L33.4781 11.0439C25.034 12.6853 18.8871 16.6836 15.2121 22.1712C11.5721 27.6067 10.6875 34.0157 11.8303 39.8946L21.6466 37.9865ZM35.3862 20.8602C41.0396 19.7613 47.2607 20.1702 54.2291 20.3548C60.7299 20.527 68.1966 20.5223 74.4322 17.5623L70.1438 8.5285C66.3673 10.3212 61.2474 10.5372 54.4939 10.3583C48.208 10.1917 40.5072 9.6776 33.4781 11.0439L35.3862 20.8602ZM76.0874 16.2957C78.1641 13.8682 80.43 12.2013 84.3629 11.4369L82.4549 1.62058C75.9433 2.8863 71.7744 5.9542 68.4886 9.7951L76.0874 16.2957ZM79.0629 9.00105L83.3262 16.4953L92.0182 11.5506L87.7549 4.05638L79.0629 9.00105ZM84.6239 10.0596C84.9354 9.82 85.2609 9.64384 85.0887 9.74378C85.0392 9.77251 85.0602 9.75995 84.9442 9.82691C84.7861 9.91825 84.5559 10.0532 84.2751 10.229C83.715 10.5796 82.968 11.0837 82.1316 11.757C80.47 13.0946 78.3937 15.1502 76.745 18.0659L85.4498 22.988C86.3218 21.4459 87.4488 20.3142 88.4023 19.5466C88.8734 19.1674 89.2869 18.8894 89.5816 18.7049C89.7281 18.6131 89.8488 18.5423 89.9452 18.4866C89.9566 18.48 90.0808 18.4087 90.1079 18.3929C90.135 18.3772 90.1909 18.3447 90.2536 18.3063C90.2641 18.2999 90.4804 18.1709 90.7205 17.9862L84.6239 10.0596ZM76.6136 18.3144L53.4243 65.3075L62.3919 69.7327L85.5812 22.7395L76.6136 18.3144ZM53.4361 65.2838C50.6218 70.9113 48.019 76.1453 44.9949 80.9718L53.4689 86.2812C56.7971 80.9694 59.6191 75.2775 62.3801 69.7564L53.4361 65.2838ZM46.6288 87.8955C52.8607 91.6955 61.7562 97.0408 66.9834 99.815L71.6713 90.9819C66.7549 88.3726 58.1194 83.1896 51.835 79.3576L46.6288 87.8955ZM67.0734 99.8616C72.4822 102.593 76.3229 103.874 80.5883 103.045L78.6802 93.2289C77.9098 93.3787 76.689 93.5147 71.5812 90.9352L67.0734 99.8616ZM80.5883 103.045C86.5567 101.885 91.0853 97.4143 94.9281 91.9705L86.7586 86.2035C83.3166 91.0793 80.7317 92.8302 78.6802 93.2289L80.5883 103.045ZM87.7968 93.0517L98.15 101.007L104.243 93.078L93.8899 85.1223L87.7968 93.0517ZM97.1085 94.1638C91.8751 101.596 85.8879 105.132 81.4834 105.848L83.0886 115.719C90.8797 114.451 98.9899 108.86 105.285 99.9215L97.1085 94.1638ZM81.4725 105.85C76.5148 106.668 71.1619 104.953 66.1095 102.305L61.4673 111.162C67.1905 114.162 74.929 117.064 83.0995 115.717L81.4725 105.85ZM66.0984 102.299C61.0293 99.6584 54.5248 95.2521 44.5537 89.1111L39.3096 97.6258C48.6879 103.402 55.9946 108.311 61.4783 111.168L66.0984 102.299ZM38.2802 89.9527C34.0985 94.423 29.6908 97.3319 24.4167 98.3571L26.3248 108.173C34.2929 106.625 40.4699 102.25 45.583 96.7842L38.2802 89.9527ZM24.4167 98.3571C19.5782 99.2976 16.3906 98.2261 14.3536 96.7448C12.1978 95.1771 10.9237 92.8535 10.5176 90.7647L0.701373 92.6728C1.5461 97.0185 4.09105 101.646 8.47237 104.832C12.9725 108.105 19.0402 109.589 26.3248 108.173L24.4167 98.3571ZM10.5176 90.7647C9.61604 86.1263 11.9032 79.1367 19.9881 77.5651L18.08 67.7489C3.22422 70.6365 -0.971037 84.069 0.701373 92.6728L10.5176 90.7647ZM19.9881 77.5651C25.0415 76.5828 29.7982 78.1828 35.7123 81.3147L40.3922 72.4774C34.0076 69.0963 26.6417 66.0846 18.08 67.7489L19.9881 77.5651ZM42.3671 79.4223C43.9899 76.6505 45.7016 73.6187 47.235 70.5928L38.3151 66.0723C36.9107 68.8435 35.3115 71.6812 33.7374 74.3698L42.3671 79.4223ZM23.4605 96.9232C27.5159 96.1349 31.1394 93.3312 34.2419 90.1433L27.0755 83.1689C24.3701 85.9488 22.5329 86.9164 21.5525 87.1069L23.4605 96.9232ZM33.0796 82.2812C30.954 81.1051 28.784 80.0498 26.6518 79.3718C24.5293 78.6968 22.1146 78.2876 19.6413 78.7684L21.5494 88.5847C21.7805 88.5398 22.3912 88.5103 23.6213 88.9015C24.8416 89.2896 26.3511 89.9869 28.2379 91.031L33.0796 82.2812ZM19.6413 78.7684C14.0258 79.8599 11.1227 85.0464 12.0811 89.9769L21.8973 88.0688C21.8946 88.0548 21.9168 88.171 21.8068 88.3421C21.7528 88.4261 21.6821 88.4967 21.6096 88.5453C21.5355 88.595 21.5014 88.594 21.5494 88.5847L19.6413 78.7684ZM12.0811 89.9769C12.5936 92.6138 14.1766 94.8104 16.5093 96.0681C18.7571 97.2801 21.3033 97.4205 23.6235 96.8887L21.3895 87.1414C20.9302 87.2467 20.9534 87.1033 21.2552 87.2661C21.4078 87.3484 21.5729 87.4829 21.7059 87.666C21.8384 87.8486 21.8848 88.0045 21.8973 88.0688L12.0811 89.9769ZM126.844 49.7653L126.359 44.7888L123.184 45.0979L122.127 48.108L126.844 49.7653ZM132.791 52.4804L137.515 54.1199L138.332 51.7661L136.945 49.6965L132.791 52.4804ZM112.513 71.1324L111.945 66.1647L109.429 66.4521L108.172 68.6503L112.513 71.1324ZM115.966 63.0092L111.141 61.6993L108.599 71.0604L117.699 67.6995L115.966 63.0092ZM98.5714 68.6163L103.058 70.8226L104.916 67.0437L101.509 64.5699L98.5714 68.6163ZM101.981 54.7917L102.734 59.7347L106.365 59.1816L106.923 55.552L101.981 54.7917ZM127.328 54.7418C127.211 54.7533 127.243 54.7323 127.438 54.773C127.618 54.8107 127.848 54.8833 128.091 54.9932C128.334 55.1035 128.525 55.2222 128.647 55.3157C128.783 55.4194 128.743 55.4215 128.638 55.2643L136.945 49.6965C135.703 47.8447 133.822 46.6125 132.223 45.8868C130.605 45.153 128.493 44.5811 126.359 44.7888L127.328 54.7418ZM128.068 50.8409C125.094 59.4072 119.028 65.3558 111.945 66.1647L113.08 76.1001C125.311 74.7032 133.788 64.8566 137.515 54.1199L128.068 50.8409ZM108.172 68.6503C105.149 73.9367 100.49 77.9569 93.8629 79.245L95.771 89.0613C105.744 87.1228 112.653 80.9583 116.853 73.6145L108.172 68.6503ZM93.8629 79.245C89.101 80.1706 85.7212 79.3385 83.4241 77.7506C81.1029 76.1461 79.2213 73.309 78.3761 68.9611L68.5598 70.8692C69.7812 77.1523 72.7922 82.558 77.738 85.9767C82.7079 89.4121 88.9694 90.3834 95.771 89.0613L93.8629 79.245ZM78.3761 68.9611C77.3563 63.7148 77.9184 56.0481 80.9369 49.3663C83.8889 42.8319 88.9667 37.6398 96.8959 36.0986L94.9878 26.2823C83.1471 28.5839 75.7735 36.5062 71.8237 45.2494C67.9405 53.8452 67.1506 63.6194 68.5598 70.8692L78.3761 68.9611ZM96.8959 36.0986C101.597 35.1848 104.854 35.9441 107.032 37.4198C109.217 38.8994 111.067 41.6073 111.937 46.082L121.753 44.1739C120.521 37.831 117.561 32.4735 112.641 29.1404C107.714 25.8034 101.571 25.0027 94.9878 26.2823L96.8959 36.0986ZM111.937 46.082C112.779 50.4135 112.645 56.1583 111.141 61.6993L120.791 64.3192C122.671 57.3955 122.905 50.1003 121.753 44.1739L111.937 46.082ZM117.699 67.6995C124.017 65.3658 128.721 59.508 131.561 51.4227L122.127 48.108C119.858 54.5646 116.764 57.3842 114.234 58.319L117.699 67.6995ZM93.7926 79.3809C96.2855 78.8963 98.2174 77.4533 99.6113 75.9738C101.021 74.4772 102.155 72.6589 103.058 70.8226L94.0845 66.41C93.4615 67.6769 92.8482 68.5693 92.3328 69.1164C91.8012 69.6806 91.6296 69.6142 91.8845 69.5647L93.7926 79.3809ZM101.509 64.5699C100.927 64.1475 100.563 63.612 100.413 62.8388L90.5965 64.7469C91.2438 68.0769 93.0613 70.795 95.6342 72.6627L101.509 64.5699ZM100.413 62.8388C100.133 61.3976 100.972 60.0032 102.734 59.7347L101.228 49.8487C93.7792 50.9836 89.2453 57.7952 90.5965 64.7469L100.413 62.8388ZM106.923 55.552C107.557 51.4302 107.742 47.2692 107.128 44.1134L97.3119 46.0215C97.6049 47.5285 97.6024 50.3718 97.0393 54.0314L106.923 55.552ZM107.128 44.1134C106.649 41.6465 105.566 39.2762 103.533 37.6526C101.411 35.9578 98.8903 35.5886 96.6865 36.017L98.5946 45.8333C98.5002 45.8516 98.3021 45.872 98.0354 45.8145C97.7551 45.7542 97.4944 45.6274 97.2931 45.4667C96.8925 45.1468 97.1208 45.038 97.3119 46.0215L107.128 44.1134ZM96.6865 36.017C92.6762 36.7965 90.1051 39.9719 88.5594 42.6143C86.9017 45.4482 85.6885 48.9151 84.8289 52.2995C83.9583 55.7272 83.3887 59.3171 83.1244 62.5385C82.8677 65.668 82.8686 68.8034 83.3327 71.1913L93.149 69.2832C92.9425 68.2207 92.8621 66.1458 93.0909 63.3561C93.3122 60.6583 93.795 57.62 94.5211 54.7613C95.2582 51.8592 96.186 49.3816 97.1911 47.6634C98.3081 45.7539 98.9213 45.7698 98.5946 45.8333L96.6865 36.017ZM83.3327 71.1913C83.7583 73.3806 84.7203 75.6339 86.5156 77.3011C88.4473 79.095 91.059 79.9123 93.7926 79.3809L91.8845 69.5647C92.0585 69.5308 92.3388 69.5209 92.6616 69.6154C92.9799 69.7085 93.2007 69.8623 93.3203 69.9734C93.4301 70.0753 93.4254 70.1121 93.368 69.9963C93.3109 69.8815 93.2208 69.6527 93.149 69.2832L83.3327 71.1913ZM174.515 40.499L174.031 35.5225L170.797 35.8373L169.771 38.9206L174.515 40.499ZM180.463 43.214L185.203 44.8038L185.985 42.4725L184.616 40.4301L180.463 43.214ZM167.148 38.4469L172.004 39.6375L172.013 39.603L172.021 39.5685L167.148 38.4469ZM140.785 55.6687L140.47 50.6786L136.147 50.9512L135.801 55.2694L140.785 55.6687ZM141.744 47.1594L136.839 46.1899L135.635 52.2813L141.843 52.1584L141.744 47.1594ZM153.663 37.7778L148.78 36.7016L148.776 36.7177L148.773 36.7338L153.663 37.7778ZM175 45.4754C174.882 45.4869 174.915 45.4659 175.109 45.5066C175.29 45.5444 175.52 45.6169 175.762 45.7268C176.005 45.8371 176.196 45.9558 176.318 46.0494C176.454 46.1531 176.415 46.1551 176.309 45.998L184.616 40.4301C183.375 38.5783 181.493 37.3461 179.894 36.6205C178.277 35.8866 176.165 35.3148 174.031 35.5225L175 45.4754ZM175.722 41.6243C171.802 53.3145 163.753 65.6597 148.435 68.6373L150.343 78.4535C170.835 74.4704 180.791 57.9599 185.203 44.8038L175.722 41.6243ZM148.435 68.6373C142.69 69.754 138.956 69.0196 136.628 67.626C134.395 66.2892 132.666 63.8726 131.878 59.8194L122.062 61.7275C123.25 67.8391 126.25 73.0683 131.492 76.2061C136.638 79.2872 143.126 79.8564 150.343 78.4535L148.435 68.6373ZM131.878 59.8194C130.87 54.6326 131.432 46.6253 134.516 39.5651C137.545 32.6325 142.707 27.1938 150.629 25.654L148.721 15.8377C136.686 18.177 129.29 26.5507 125.353 35.5614C121.472 44.4445 120.659 54.5115 122.062 61.7275L131.878 59.8194ZM150.629 25.654C155.004 24.8036 158.509 25.6244 160.444 27.2175C162.047 28.5368 163.661 31.305 162.276 37.3254L172.021 39.5685C173.993 31 172.14 23.8935 166.801 19.4974C161.794 15.375 154.884 14.6397 148.721 15.8377L150.629 25.654ZM162.292 37.2564C161.365 41.0396 159.718 43.9253 156.789 46.0781C153.741 48.3171 148.773 50.155 140.47 50.6786L141.1 60.6588C150.484 60.067 157.564 57.9178 162.71 54.1366C167.973 50.2693 170.665 45.1017 172.004 39.6375L162.292 37.2564ZM140.785 55.6687C135.801 55.2694 135.801 55.2722 135.801 55.275C135.8 55.276 135.8 55.2789 135.8 55.2809C135.8 55.2849 135.799 55.2891 135.799 55.2935C135.798 55.3022 135.798 55.3116 135.797 55.3217C135.796 55.3419 135.794 55.3647 135.792 55.3902C135.789 55.4412 135.786 55.5027 135.783 55.574C135.777 55.7164 135.772 55.8995 135.773 56.1168C135.774 56.5486 135.796 57.132 135.876 57.813C136.031 59.1331 136.429 61.0427 137.498 62.9439C138.612 64.9254 140.439 66.85 143.235 67.9672C145.96 69.0561 149.157 69.1998 152.763 68.4989L150.855 58.6826C148.539 59.1328 147.398 58.8617 146.945 58.681C146.564 58.5287 146.375 58.3289 146.214 58.0421C146.007 57.675 145.87 57.1725 145.808 56.6475C145.78 56.4059 145.773 56.2086 145.773 56.0902C145.773 56.0325 145.774 55.9981 145.774 55.9919C145.774 55.9889 145.774 55.9933 145.774 56.0057C145.773 56.0119 145.773 56.0201 145.772 56.0305C145.772 56.0357 145.771 56.0414 145.771 56.0476C145.77 56.0507 145.77 56.054 145.77 56.0574C145.77 56.0591 145.77 56.0618 145.769 56.0626C145.769 56.0653 145.769 56.068 140.785 55.6687ZM152.763 68.4989C164.481 66.2212 174.507 56.3623 179.26 42.0773L169.771 38.9206C165.849 50.7098 158.162 57.2624 150.855 58.6826L152.763 68.4989ZM150.277 27.826C147.067 28.45 144.69 30.3758 143.041 32.3003C141.388 34.2285 140.183 36.4756 139.321 38.4404C138.445 40.4363 137.833 42.3482 137.442 43.7425C137.244 44.4464 137.098 45.0348 137 45.4571C136.95 45.6686 136.912 45.8395 136.886 45.9635C136.873 46.0255 136.862 46.0759 136.854 46.1138C136.85 46.1328 136.847 46.1487 136.845 46.1614C136.843 46.1678 136.842 46.1733 136.841 46.1781C136.841 46.1805 136.84 46.1826 136.84 46.1846C136.84 46.1856 136.839 46.1869 136.839 46.1874C136.839 46.1887 136.839 46.1899 141.744 47.1594C146.649 48.1289 146.649 48.13 146.649 48.1311C146.649 48.1313 146.648 48.1324 146.648 48.133C146.648 48.1341 146.648 48.1351 146.648 48.1359C146.647 48.1375 146.647 48.1383 146.647 48.1383C146.647 48.1384 146.648 48.1356 146.649 48.1297C146.651 48.1181 146.656 48.0949 146.663 48.0607C146.678 47.9924 146.703 47.8809 146.737 47.732C146.807 47.4335 146.917 46.9893 147.07 46.4456C147.379 45.3448 147.845 43.9019 148.478 42.4591C149.125 40.9853 149.86 39.71 150.634 38.8077C151.41 37.9017 151.944 37.689 152.185 37.6423L150.277 27.826ZM141.843 52.1584C147.108 52.0541 151.236 50.6431 154.171 47.7322C156.984 44.9413 157.995 41.4351 158.553 38.8217L148.773 36.7338C148.318 38.866 147.804 39.9628 147.128 40.6324C146.574 41.182 145.249 42.089 141.645 42.1603L141.843 52.1584ZM158.546 38.8539C158.736 37.9924 158.919 37.003 158.996 36.007C159.068 35.0655 159.078 33.7566 158.665 32.4159C158.209 30.9344 157.174 29.278 155.216 28.3327C153.437 27.4745 151.625 27.564 150.277 27.826L152.185 37.6423C152.422 37.5962 151.79 37.7829 150.869 37.3387C150.385 37.1049 149.96 36.7587 149.636 36.3455C149.327 35.9514 149.178 35.5853 149.108 35.3589C148.99 34.9769 149.055 34.8549 149.025 35.2397C149 35.57 148.924 36.0465 148.78 36.7016L158.546 38.8539Z" fill="white" mask="url(#path-1-outside-1_79_2534)"/>
</svg>
